<svg width="106" height="11" viewBox="0 0 106 11" fill="none" xmlns="http://www.w3.org/2000/svg">
    <path d="M47.4002 0.108889C47.4588 0.0401847 47.5488 0 47.6443 0H47.9533C48.0177 0 48.0538 0.0674866 48.0144 0.113804L46.0401 2.42957C45.9815 2.49828 45.8914 2.53846 45.796 2.53846H45.4869C45.4226 2.53846 45.3864 2.47098 45.4259 2.42466L47.4002 0.108889Z" fill="#E6123D"/>
    <path d="M43.3191 0.282051C43.4862 0.282051 43.6095 0.383156 43.6262 0.528512L43.6282 0.562815V1.40511C43.6282 1.55699 43.5169 1.66889 43.3568 1.6841L43.3191 1.68587H42.2372C42.07 1.68587 41.9468 1.58481 41.93 1.43942L41.9281 1.40511V0.562815C41.9281 0.410987 42.0394 0.299038 42.1994 0.28382L42.2372 0.282051H43.3191Z" fill="#E6123D"/>
    <path d="M57.4123 2.29869C57.2395 2.29869 57.0973 2.17988 57.0791 2.02744L57.0771 1.99429L57.0772 0.586455C57.0772 0.429535 57.2079 0.300368 57.3758 0.283843L57.4124 0.282057H58.3514C58.5244 0.282057 58.6666 0.400763 58.6848 0.553285L58.6868 0.586455L58.6871 0.983801L59.767 0.983734C59.9398 0.983734 60.0821 1.10244 60.1003 1.25496L60.1022 1.28813V1.99429C60.1022 2.1511 59.9715 2.28037 59.8036 2.2969L59.767 2.29869H57.4123Z" fill="#E6123D"/>
    <path d="M104.038 8.98337C104.211 8.98337 104.353 9.10218 104.372 9.25461L104.374 9.28776L104.374 10.6956C104.374 10.8525 104.243 10.9817 104.075 10.9982L104.038 11H103.099C102.926 11 102.784 10.8813 102.766 10.7288L102.764 10.6956L102.764 10.2983L101.684 10.2983C101.511 10.2983 101.369 10.1796 101.351 10.0271L101.349 9.99393V9.28776C101.349 9.13095 101.479 9.00169 101.647 8.98515L101.684 8.98337H104.038Z" fill="#E6123D"/>
    <path d="M92.0147 2.3095C92.0329 2.46193 92.1751 2.58074 92.3479 2.58074H94.7027L94.7392 2.57896C94.9071 2.56242 95.0378 2.43315 95.0378 2.27635V1.57018L95.0359 1.53701C95.0177 1.38449 94.8754 1.26579 94.7027 1.26579L93.6227 1.26585L93.6224 0.868506L93.6204 0.835336C93.6022 0.682814 93.46 0.564109 93.2871 0.564109H92.348L92.3115 0.565895C92.1435 0.58242 92.0128 0.711586 92.0128 0.868506L92.0127 2.27635L92.0147 2.3095Z" fill="#E6123D"/>
    <path d="M34.1984 2.53846C34.3656 2.53846 34.4888 2.63957 34.5056 2.78492L34.5075 2.81923V3.66152C34.5075 3.8134 34.3963 3.9253 34.2362 3.94051L34.1984 3.94228H31.7256C31.5584 3.94228 31.4352 3.84123 31.4184 3.69583L31.4165 3.66152V2.81923C31.4165 2.6674 31.5277 2.55545 31.6878 2.54023L31.7256 2.53846H34.1984Z" fill="#E6123D"/>
    <path d="M99.7393 9.23733C99.7226 9.09198 99.5994 8.99087 99.4322 8.99087H96.9593L96.9216 8.99264C96.7615 9.00786 96.6502 9.11981 96.6502 9.27164V10.1139L96.6522 10.1482C96.6689 10.2936 96.7921 10.3947 96.9593 10.3947H99.4322L99.47 10.3929C99.63 10.3777 99.7413 10.2658 99.7413 10.1139V9.27164L99.7393 9.23733Z" fill="#E6123D"/>
    <path d="M9.46526 8.99087C9.63247 8.99087 9.75567 9.09198 9.77242 9.23733L9.77436 9.27164V10.1139C9.77436 10.2658 9.66311 10.3777 9.50303 10.3929L9.46526 10.3947H6.99241C6.8252 10.3947 6.702 10.2936 6.68526 10.1482L6.68331 10.1139V9.27164C6.68331 9.11981 6.79457 9.00786 6.95464 8.99264L6.99241 8.99087H9.46526Z" fill="#E6123D"/>
    <path d="M85.0543 1.37467C85.0375 1.22931 84.9143 1.12821 84.7471 1.12821H83.6653L83.6275 1.12997C83.4675 1.14519 83.3561 1.25714 83.3561 1.40897V2.25126L83.3581 2.28557C83.3749 2.43097 83.4981 2.53203 83.6653 2.53203H84.7471L84.7849 2.53026C84.9449 2.51505 85.0562 2.40314 85.0562 2.25126V1.40897L85.0543 1.37467Z" fill="#E6123D"/>
    <path d="M4.82838 1.12821C4.99553 1.12821 5.11878 1.22931 5.13554 1.37467L5.13749 1.40897V2.25126C5.13749 2.40314 5.02618 2.51505 4.86615 2.53026L4.82838 2.53203H3.90077C3.73361 2.53203 3.61036 2.43097 3.59361 2.28557L3.59166 2.25126V1.40897C3.59166 1.25714 3.70297 1.14519 3.863 1.12997L3.90077 1.12821H4.82838Z" fill="#E6123D"/>
    <path d="M21.6755 1.37467C21.6588 1.22931 21.5355 1.12821 21.3684 1.12821H20.2865L20.2487 1.12997C20.0887 1.14519 19.9774 1.25714 19.9774 1.40897V2.25126L19.9793 2.28557C19.9961 2.43097 20.1193 2.53203 20.2865 2.53203H21.3684L21.4061 2.53026C21.5662 2.51505 21.6775 2.40314 21.6775 2.25126V1.40897L21.6755 1.37467Z" fill="#E6123D"/>
    <path d="M70.3691 4.42488C70.3344 3.27755 69.4884 2.53332 68.2065 2.53332H65.4245L65.3868 2.53509C65.2269 2.55032 65.1154 2.66236 65.1154 2.81408V3.65637L65.1174 3.69064C65.1342 3.83589 65.2576 3.93713 65.4245 3.93713H68.2065L68.2602 3.93815C68.6446 3.95307 68.8247 4.13261 68.8247 4.49866V6.18325L68.8236 6.232C68.8072 6.5811 68.6095 6.74477 68.2065 6.74477H65.4245L65.3868 6.74654C65.2269 6.76177 65.1154 6.87376 65.1154 7.02554V7.86783L65.1174 7.90211C65.1342 8.04739 65.2576 8.14859 65.4245 8.14859H68.2065L68.2877 8.14759C69.5509 8.11607 70.3702 7.34758 70.3702 6.18325V4.49866L70.3691 4.42488Z" fill="#E6123D"/>
    <path d="M13.9453 0C13.8499 0 13.7598 0.0401847 13.7013 0.108889L11.727 2.42466C11.6875 2.47098 11.7237 2.53846 11.788 2.53846H12.0971C12.1925 2.53846 12.2825 2.49828 12.3411 2.42957L14.3154 0.113804C14.3549 0.0674866 14.3187 0 14.2544 0H13.9453Z" fill="#E6123D"/>
    <path fill-rule="evenodd" clip-rule="evenodd" d="M74.3904 5.07693V6.76923H73.772C73.2598 6.76923 72.8446 6.3904 72.8446 5.92308V1.12821C72.8446 0.972433 72.7061 0.846154 72.5354 0.846154H71.6079C71.4371 0.846154 71.2987 0.972433 71.2987 1.12821V5.92308C71.2987 7.16926 72.4061 8.17949 73.772 8.17949H80.4191C80.9798 8.17949 81.4941 7.99791 81.895 7.69567L82.17 8.05799C82.2277 8.13408 82.3227 8.17949 82.4242 8.17949H84.2718C84.9753 8.17949 85.6103 7.91149 86.0606 7.48128L86.4983 8.05799C86.556 8.13408 86.651 8.17949 86.7525 8.17949H88.6001C89.2111 8.17949 89.7704 7.97733 90.202 7.64232L90.5174 8.05799C90.5752 8.13408 90.6702 8.17949 90.7716 8.17949H91.9964C92.6101 8.17949 93.1717 7.97556 93.604 7.63792L93.9228 8.05799C93.9805 8.13408 94.0755 8.17949 94.177 8.17949H94.4743C95.1186 8.17949 95.7054 7.9547 96.1456 7.58638L96.4081 8.03116C96.462 8.12252 96.5666 8.17949 96.6803 8.17949H98.8144C99.4242 8.17949 99.9751 7.9494 100.368 7.57919L100.732 8.05799C100.79 8.13408 100.885 8.17949 100.986 8.17949H102.834C104.2 8.17949 105.307 7.16926 105.307 5.92308V4.23077C105.307 4.075 105.168 3.94872 104.998 3.94872H104.07C103.899 3.94872 103.761 4.075 103.761 4.23077V5.92308C103.761 6.3904 103.346 6.76923 102.834 6.76923H100.889C100.947 6.5905 100.979 6.40115 100.979 6.20513V4.23077C100.979 4.075 100.84 3.94872 100.669 3.94872H99.7419C99.5711 3.94872 99.4327 4.075 99.4327 4.23077V6.20513C99.4327 6.51668 99.1559 6.76923 98.8144 6.76923H96.9594V4.23077C96.9594 4.075 96.821 3.94872 96.6502 3.94872H95.7109C95.5402 3.94872 95.4017 4.075 95.4017 4.23077V5.92308C95.4017 6.3904 94.9865 6.76923 94.4743 6.76923H94.2899C94.4059 6.50793 94.4697 6.22231 94.4697 5.92308V4.23077C94.4697 4.075 94.3313 3.94872 94.1606 3.94872H93.2331C93.0623 3.94872 92.9239 4.075 92.9239 4.23077V5.92308C92.9239 6.3904 92.5087 6.76923 91.9964 6.76923H90.8936C91.0095 6.50793 91.0734 6.22231 91.0734 5.92308V4.23077C91.0734 4.075 90.935 3.94872 90.7642 3.94872H89.8367C89.666 3.94872 89.5276 4.075 89.5276 4.23077V5.92308C89.5276 6.3904 89.1123 6.76923 88.6001 6.76923H86.5653C86.6812 6.50793 86.7451 6.22231 86.7451 5.92308V4.23077C86.7451 4.075 86.6067 3.94872 86.4359 3.94872H85.5084C85.3377 3.94872 85.1992 4.075 85.1992 4.23077V5.92308C85.1992 6.3904 84.784 6.76923 84.2718 6.76923H82.6059C82.6913 6.54869 82.7378 6.31135 82.7378 6.06411C82.7378 4.89581 81.6997 3.94872 80.4191 3.94872L79.0061 3.94872C78.5785 3.27428 77.7792 2.82051 76.8637 2.82051C75.4977 2.82051 74.3904 3.83074 74.3904 5.07693ZM76.8637 4.23077C76.3514 4.23077 75.9362 4.60961 75.9362 5.07693V6.76923H77.7912V5.07693C77.7912 4.60961 77.3759 4.23077 76.8637 4.23077ZM79.337 6.76923L79.337 5.35898H80.4191C80.846 5.35898 81.192 5.67467 81.192 6.06411C81.192 6.45354 80.846 6.76923 80.4191 6.76923H79.337Z" fill="#E6123D"/>
    <path fill-rule="evenodd" clip-rule="evenodd" d="M45.3289 5.92308C45.3289 6.22231 45.265 6.50793 45.1491 6.76923H49.6559C50.5405 6.76923 51.2014 6.16618 51.2014 5.35898V5.07693C51.2014 4.26972 50.5405 3.66667 49.6559 3.66667H46.1012C45.823 3.66667 45.7694 3.43921 45.9466 3.24359L48.5499 0.210033C48.6704 0.0770234 48.8498 0 49.0389 0H50.2263C50.4652 0 50.5961 0.253846 50.4439 0.421806L48.8831 2.25641H49.6559C51.4283 2.25641 52.7469 3.45955 52.7469 5.07693V5.35898C52.7469 5.88107 52.6095 6.36 52.3638 6.76923H53.9736C54.4859 6.76923 54.9011 6.3904 54.9011 5.92308V4.23077C54.9011 4.075 55.0395 3.94872 55.2103 3.94872H56.1378C56.3085 3.94872 56.4469 4.075 56.4469 4.23077V5.92308C56.4469 6.22231 56.3831 6.50793 56.2671 6.76923H57.37C57.8822 6.76923 58.2975 6.3904 58.2975 5.92308V4.23077C58.2975 4.075 58.4359 3.94872 58.6066 3.94872H59.5341C59.7049 3.94872 59.8433 4.075 59.8433 4.23077V5.92308C59.8433 6.22231 59.7794 6.50793 59.6635 6.76923H59.8478C60.36 6.76923 60.7753 6.3904 60.7753 5.92308V4.23077C60.7753 4.075 60.9137 3.94872 61.0845 3.94872H62.012C62.1827 3.94872 62.3211 4.075 62.3211 4.23077V5.92308C62.3211 7.16926 61.2138 8.17949 59.8478 8.17949H59.5505C59.4491 8.17949 59.3541 8.13408 59.2963 8.05799L58.9775 7.63792C58.5452 7.97556 57.9837 8.17949 57.37 8.17949H56.1452C56.0437 8.17949 55.9487 8.13408 55.891 8.05799L55.5755 7.64232C55.144 7.97733 54.5847 8.17949 53.9736 8.17949H52.126C52.0246 8.17949 51.9296 8.13408 51.8718 8.05799L51.5458 7.62831C51.0315 7.9777 50.3818 8.17949 49.6559 8.17949H38.2136C38.1122 8.17949 38.0172 8.13408 37.9594 8.05799L37.644 7.6423C37.2124 7.97732 36.6531 8.17949 36.042 8.17949H29.8707C28.5047 8.17949 27.3974 7.16926 27.3974 5.92308V4.23077C27.3974 4.075 27.5358 3.94872 27.7065 3.94872H28.634C28.8048 3.94872 28.9432 4.075 28.9432 4.23077V5.92308C28.9432 6.3904 29.3585 6.76923 29.8707 6.76923H36.042C36.5543 6.76923 36.9695 6.3904 36.9695 5.92308V4.23077C36.9695 4.075 37.1079 3.94872 37.2787 3.94872H38.2062C38.3769 3.94872 38.5153 4.075 38.5153 4.23077V5.92308C38.5153 6.22231 38.4515 6.50793 38.3356 6.76923H40.562C40.4461 6.50793 40.3823 6.22231 40.3823 5.92308V5.07693C40.3823 3.83074 41.4896 2.82051 42.8556 2.82051C44.2215 2.82051 45.3289 3.83074 45.3289 5.07693V5.92308ZM43.7831 5.07693V5.92308C43.7831 6.3904 43.3678 6.76923 42.8556 6.76923C42.3433 6.76923 41.9281 6.3904 41.9281 5.92308V5.07693C41.9281 4.60961 42.3433 4.23077 42.8556 4.23077C43.3678 4.23077 43.7831 4.60961 43.7831 5.07693Z" fill="#E6123D"/>
    <path d="M19.048 5.35898C19.048 5.88107 18.9106 6.36 18.6649 6.76923H21.2022C21.7144 6.76923 22.1297 6.3904 22.1297 5.92308V4.23077C22.1297 4.075 22.2681 3.94872 22.4388 3.94872H23.3663C23.5371 3.94872 23.6755 4.075 23.6755 4.23077V5.92308C23.6755 7.16926 22.5681 8.17949 21.2022 8.17949H19.0454C18.944 8.17949 18.849 8.13408 18.7912 8.05799L18.2292 7.31736C17.6747 7.85534 16.8769 8.17949 15.9569 8.17949H10.6215L10.1476 7.62723C9.71345 7.97125 9.14658 8.17949 8.52641 8.17949H5.75133C5.64988 8.17949 5.55488 8.13408 5.49714 8.05799L5.15764 7.61061V7.61539C5.15764 9.23277 3.83904 10.4359 2.06659 10.4359H1.75077C1.56065 10.4359 1.3811 10.3561 1.2639 10.2195L0.602423 9.44872C0.425178 9.25311 0.478782 9.02565 0.756976 9.02565H2.06659C2.95122 9.02565 3.61211 8.42259 3.61211 7.61539L3.61182 4.23077C3.61182 4.075 3.75023 3.94872 3.92098 3.94872H4.84847C5.01922 3.94872 5.15764 4.075 5.15764 4.23077V6.76923H8.52641C9.03865 6.76923 9.4539 6.3904 9.4539 5.92308V4.23077C9.4539 4.075 9.59232 3.94872 9.76306 3.94872H10.6906C10.8613 3.94872 10.9997 4.075 10.9997 4.23077V5.92308C10.9997 6.22231 10.9359 6.50793 10.8199 6.76923H15.9569C16.8416 6.76923 17.5025 6.16618 17.5025 5.35898V5.07693C17.5025 4.26972 16.8416 3.66667 15.9569 3.66667H12.4022C12.124 3.66667 12.0704 3.43921 12.2477 3.24359L14.8509 0.210033C14.9715 0.0770234 15.1508 0 15.3399 0H16.5274C16.7663 0 16.8972 0.253846 16.745 0.421806L15.1842 2.25641H15.9569C17.7294 2.25641 19.048 3.45955 19.048 5.07693V5.35898Z" fill="#E6123D"/>
    <path d="M24.6149 1.12821C24.6149 0.972433 24.7533 0.846154 24.924 0.846154H25.8515C26.0223 0.846154 26.1607 0.972433 26.1607 1.12821V7.89744C26.1607 8.05321 26.0223 8.17949 25.8515 8.17949H24.924C24.7533 8.17949 24.6149 8.05321 24.6149 7.89744V1.12821Z" fill="#E6123D"/>
</svg>